<svg width="100" height="100" viewBox="0 0 30 30" fill="none" xmlns="http://www.w3.org/2000/svg">
<path fill-rule="evenodd" clip-rule="evenodd" d="M5.17259 19.2188L8.50076 17L8.50079 17V17H9.50079V26H11.5008V27H9.50079H8.50079H6.50079V26H8.50079V18.2018L5.7273 20.0508L5.17259 19.2188Z" fill="black"/>
<line x1="12.5008" y1="26.5" x2="17.5008" y2="26.5" stroke="black"/>
<path fill-rule="evenodd" clip-rule="evenodd" d="M18.5008 11L18.5008 27H19.5008H26.5008V26H19.5008L19.5008 11L18.5008 11Z" fill="#FF0000"/>
<path fill-rule="evenodd" clip-rule="evenodd" d="M24.2997 4L4 17.5332L4.5547 18.3653L25.5008 4.40112L25.5008 11L26.5008 11L26.5008 4L26.1024 4L26.5008 4V3H25.7997H14.5008V4H24.2997Z" fill="#FF0000"/>
<line x1="12.5008" y1="26.5" x2="17.5008" y2="26.5" stroke="black"/>
<line x1="12.5008" y1="26.5" x2="17.5008" y2="26.5" stroke="black"/>
<path fill-rule="evenodd" clip-rule="evenodd" d="M14.5008 26L14.5008 14.2019L11.7273 16.0509L11.1726 15.2188L14.5008 13L15.5008 13L15.5008 26L14.5008 26ZM14.5008 26H17.5008V27H12.5008V26H14.5008Z" fill="black"/>
<path fill-rule="evenodd" clip-rule="evenodd" d="M5.17259 19.2188L8.50076 17L8.50079 17V17H9.50079V26H11.5008V27H9.50079H8.50079H6.50079V26H8.50079V18.2018L5.7273 20.0508L5.17259 19.2188Z" fill="white"/>
<line x1="12.5008" y1="26.5" x2="17.5008" y2="26.5" stroke="black"/>
<path fill-rule="evenodd" clip-rule="evenodd" d="M18.5008 11L18.5008 27H19.5008H26.5008V26H19.5008L19.5008 11L18.5008 11Z" fill="#FF0000"/>
<path fill-rule="evenodd" clip-rule="evenodd" d="M24.2997 4L4 17.5332L4.5547 18.3653L25.5008 4.40112L25.5008 11L26.5008 11L26.5008 4L26.1024 4L26.5008 4V3H25.7997H14.5008V4H24.2997Z" fill="#FF0000"/>
<line x1="12.5008" y1="26.5" x2="17.5008" y2="26.5" stroke="black"/>
<line x1="12.5008" y1="26.5" x2="17.5008" y2="26.5" stroke="black"/>
<path fill-rule="evenodd" clip-rule="evenodd" d="M14.5008 26L14.5008 14.2019L11.7273 16.0509L11.1726 15.2188L14.5008 13L15.5008 13L15.5008 26L14.5008 26ZM14.5008 26H17.5008V27H12.5008V26H14.5008Z" fill="white"/>
</svg>
