<svg xmlns="http://www.w3.org/2000/svg" width="152.25" height="35" viewBox="0 0 152.25 35"><rect class="svg__rect" x="0" y="0" width="84.32000000000001" height="35" fill="#FF0000"/><rect class="svg__rect" x="82.32000000000001" y="0" width="69.92999999999999" height="35" fill="#000000"/><path class="svg__text" d="M19.80 22L14.22 22L14.22 13.47L19.75 13.47L19.75 14.66L15.70 14.66L15.70 17.02L19.20 17.02L19.20 18.19L15.70 18.19L15.70 20.82L19.80 20.82L19.80 22ZM29.35 22L23.99 22L23.99 13.47L25.47 13.47L25.47 20.82L29.35 20.82L29.35 22ZM39.05 22L33.47 22L33.47 13.47L39.01 13.47L39.01 14.66L34.95 14.66L34.95 17.02L38.46 17.02L38.46 18.19L34.95 18.19L34.95 20.82L39.05 20.82L39.05 22ZM45.54 22L42.48 13.47L44.11 13.47L46.25 20.14L48.42 13.47L50.05 13.47L46.98 22L45.54 22ZM59.57 22L54.00 22L54.00 13.47L59.53 13.47L59.53 14.66L55.48 14.66L55.48 17.02L58.98 17.02L58.98 18.19L55.48 18.19L55.48 20.82L59.57 20.82L59.57 22ZM65.25 22L63.77 22L63.77 13.47L65.25 13.47L69.07 19.54L69.07 13.47L70.54 13.47L70.54 22L69.06 22L65.25 15.95L65.25 22Z" fill="#000000"/><path class="svg__text" d="M102.89 22L96.51 22L96.51 13.60L98.89 13.60L98.89 20.11L102.89 20.11L102.89 22ZM114.06 22L107.31 22L107.31 13.60L113.90 13.60L113.90 15.44L109.67 15.44L109.67 16.85L113.40 16.85L113.40 18.63L109.67 18.63L109.67 20.17L114.06 20.17L114.06 22ZM120.28 22L117.85 22L121.56 13.60L123.91 13.60L127.62 22L125.15 22L124.49 20.37L120.94 20.37L120.28 22ZM122.72 15.93L121.63 18.61L123.80 18.61L122.72 15.93ZM135.75 22L131.78 22L131.78 13.60L135.75 13.60Q137.13 13.60 138.20 14.12Q139.26 14.63 139.85 15.58Q140.44 16.53 140.44 17.80L140.44 17.80Q140.44 19.07 139.85 20.02Q139.26 20.97 138.20 21.48Q137.13 22 135.75 22L135.75 22ZM134.15 15.50L134.15 20.10L135.65 20.10Q136.73 20.10 137.39 19.49Q138.04 18.88 138.04 17.80L138.04 17.80Q138.04 16.72 137.39 16.11Q136.73 15.50 135.65 15.50L135.65 15.50L134.15 15.50Z" fill="#FF0000" x="95.32000000000001"/></svg>