<svg xmlns="http://www.w3.org/2000/svg" width="92.17999999999999" height="35" viewBox="0 0 92.17999999999999 35"><rect class="svg__rect" x="0" y="0" width="92.17999999999999" height="35" fill="#4000BF"/><rect class="svg__rect" x="92.17999999999999" y="0" width="0" height="35" fill="#FFFFFF"/><path class="svg__text" d="M15.78 22L14.31 22L14.31 13.47L15.78 13.47L15.78 22ZM22.07 22L20.59 22L20.59 13.47L22.07 13.47L25.89 19.54L25.89 13.47L27.36 13.47L27.36 22L25.88 22L22.07 15.95L22.07 22ZM31.67 19.42L31.67 19.42L33.15 19.42Q33.15 20.15 33.63 20.55Q34.11 20.95 35.01 20.95L35.01 20.95Q35.78 20.95 36.17 20.63Q36.56 20.32 36.56 19.80L36.56 19.80Q36.56 19.24 36.16 18.94Q35.77 18.63 34.74 18.32Q33.71 18.01 33.10 17.63L33.10 17.63Q31.93 16.90 31.93 15.72L31.93 15.72Q31.93 14.69 32.77 14.02Q33.61 13.35 34.95 13.35L34.95 13.35Q35.84 13.35 36.54 13.68Q37.24 14.01 37.64 14.61Q38.04 15.22 38.04 15.96L38.04 15.96L36.56 15.96Q36.56 15.29 36.14 14.91Q35.72 14.54 34.94 14.54L34.94 14.54Q34.22 14.54 33.81 14.85Q33.41 15.16 33.41 15.71L33.41 15.71Q33.41 16.18 33.85 16.50Q34.28 16.81 35.28 17.10Q36.27 17.40 36.88 17.78Q37.48 18.16 37.76 18.65Q38.04 19.13 38.04 19.79L38.04 19.79Q38.04 20.86 37.22 21.49Q36.41 22.12 35.01 22.12L35.01 22.12Q34.08 22.12 33.30 21.77Q32.53 21.43 32.10 20.83Q31.67 20.22 31.67 19.42ZM42.06 18.00L42.06 18.00L42.06 17.52Q42.06 16.28 42.50 15.32Q42.95 14.37 43.75 13.86Q44.56 13.35 45.60 13.35Q46.64 13.35 47.45 13.85Q48.25 14.35 48.69 15.29Q49.13 16.23 49.14 17.48L49.14 17.48L49.14 17.96Q49.14 19.21 48.71 20.16Q48.27 21.10 47.47 21.61Q46.66 22.12 45.61 22.12L45.61 22.12Q44.57 22.12 43.76 21.61Q42.95 21.10 42.51 20.17Q42.07 19.23 42.06 18.00ZM43.54 17.46L43.54 17.96Q43.54 19.36 44.09 20.13Q44.64 20.90 45.61 20.90L45.61 20.90Q46.60 20.90 47.13 20.15Q47.66 19.40 47.66 17.96L47.66 17.96L47.66 17.51Q47.66 16.09 47.12 15.34Q46.58 14.58 45.60 14.58L45.60 14.58Q44.64 14.58 44.10 15.33Q43.56 16.09 43.54 17.46L43.54 17.46ZM55.08 22L53.60 22L53.60 13.47L55.53 13.47L57.99 20.01L60.44 13.47L62.36 13.47L62.36 22L60.88 22L60.88 19.19L61.03 15.43L58.51 22L57.45 22L54.93 15.43L55.08 19.19L55.08 22ZM68.66 22L67.19 22L67.19 13.47L68.66 13.47L68.66 22ZM74.25 22L72.71 22L75.93 13.47L77.26 13.47L80.49 22L78.95 22L78.25 20.01L74.94 20.01L74.25 22ZM76.60 15.28L75.36 18.82L77.83 18.82L76.60 15.28Z" fill="#FFFFFF"/><path class="svg__text" d="" fill="#F79300" x="105.17999999999999"/></svg>