<svg xmlns="http://www.w3.org/2000/svg" width="64.53" height="35" viewBox="0 0 64.53 35"><rect class="svg__rect" x="0" y="0" width="64.53" height="35" fill="#4A4A4A"/><rect class="svg__rect" x="64.53" y="0" width="0" height="35" fill="#000000"/><path class="svg__text" d="M13.61 19.57L13.61 19.57L15.09 19.57Q15.09 20.25 15.43 20.59Q15.76 20.93 16.40 20.93L16.40 20.93Q17.00 20.93 17.35 20.54Q17.71 20.14 17.71 19.45L17.71 19.45L17.71 13.47L19.19 13.47L19.19 19.45Q19.19 20.68 18.42 21.40Q17.66 22.12 16.40 22.12L16.40 22.12Q15.07 22.12 14.34 21.44Q13.61 20.77 13.61 19.57ZM23.43 19.42L23.43 19.42L24.92 19.42Q24.92 20.15 25.40 20.55Q25.88 20.95 26.77 20.95L26.77 20.95Q27.55 20.95 27.94 20.63Q28.33 20.32 28.33 19.80L28.33 19.80Q28.33 19.24 27.93 18.94Q27.54 18.63 26.50 18.32Q25.47 18.01 24.86 17.63L24.86 17.63Q23.70 16.90 23.70 15.72L23.70 15.72Q23.70 14.69 24.54 14.02Q25.38 13.35 26.72 13.35L26.72 13.35Q27.61 13.35 28.31 13.68Q29.01 14.01 29.40 14.61Q29.80 15.22 29.80 15.96L29.80 15.96L28.33 15.96Q28.33 15.29 27.91 14.91Q27.49 14.54 26.71 14.54L26.71 14.54Q25.98 14.54 25.58 14.85Q25.18 15.16 25.18 15.71L25.18 15.71Q25.18 16.18 25.61 16.50Q26.05 16.81 27.04 17.10Q28.04 17.40 28.64 17.78Q29.25 18.16 29.53 18.65Q29.81 19.13 29.81 19.79L29.81 19.79Q29.81 20.86 28.99 21.49Q28.17 22.12 26.77 22.12L26.77 22.12Q25.85 22.12 25.07 21.77Q24.30 21.43 23.86 20.83Q23.43 20.22 23.43 19.42ZM33.83 18.00L33.83 18.00L33.83 17.52Q33.83 16.28 34.27 15.32Q34.71 14.37 35.52 13.86Q36.32 13.35 37.37 13.35Q38.41 13.35 39.22 13.85Q40.02 14.35 40.46 15.29Q40.90 16.23 40.91 17.48L40.91 17.48L40.91 17.96Q40.91 19.21 40.47 20.16Q40.04 21.10 39.23 21.61Q38.43 22.12 37.38 22.12L37.38 22.12Q36.34 22.12 35.53 21.61Q34.72 21.10 34.28 20.17Q33.83 19.23 33.83 18.00ZM35.31 17.46L35.31 17.96Q35.31 19.36 35.86 20.13Q36.41 20.90 37.38 20.90L37.38 20.90Q38.36 20.90 38.89 20.15Q39.42 19.40 39.42 17.96L39.42 17.96L39.42 17.51Q39.42 16.09 38.89 15.34Q38.35 14.58 37.37 14.58L37.37 14.58Q36.41 14.58 35.86 15.33Q35.32 16.09 35.31 17.46L35.31 17.46ZM46.85 22L45.37 22L45.37 13.47L46.85 13.47L50.67 19.54L50.67 13.47L52.14 13.47L52.14 22L50.66 22L46.85 15.95L46.85 22Z" fill="#FFFFFF"/><path class="svg__text" d="" fill="#FF0000" x="77.53"/></svg>