<svg xmlns="http://www.w3.org/2000/svg" width="95.21000000000001" height="35" viewBox="0 0 95.21000000000001 35"><rect class="svg__rect" x="0" y="0" width="95.21000000000001" height="35" fill="#BA7257"/><rect class="svg__rect" x="95.21000000000001" y="0" width="0" height="35" fill="#389AD5"/><path class="svg__text" d="M15.69 22L14.22 22L14.22 13.47L16.14 13.47L18.60 20.01L21.06 13.47L22.97 13.47L22.97 22L21.49 22L21.49 19.19L21.64 15.43L19.12 22L18.06 22L15.55 15.43L15.69 19.19L15.69 22ZM28.49 22L26.95 22L30.17 13.47L31.50 13.47L34.73 22L33.18 22L32.49 20.01L29.18 20.01L28.49 22ZM30.83 15.28L29.60 18.82L32.07 18.82L30.83 15.28ZM40.17 22L38.69 22L38.69 13.47L41.69 13.47Q43.16 13.47 43.97 14.13Q44.77 14.79 44.77 16.05L44.77 16.05Q44.77 16.90 44.35 17.48Q43.94 18.06 43.20 18.37L43.20 18.37L45.12 21.92L45.12 22L43.53 22L41.82 18.71L40.17 18.71L40.17 22ZM40.17 14.66L40.17 17.52L41.69 17.52Q42.44 17.52 42.86 17.15Q43.29 16.77 43.29 16.11L43.29 16.11Q43.29 15.43 42.90 15.05Q42.51 14.68 41.73 14.66L41.73 14.66L40.17 14.66ZM50.73 22L49.25 22L49.25 13.47L50.73 13.47L50.73 22ZM56.32 22L54.78 22L58.00 13.47L59.33 13.47L62.56 22L61.01 22L60.31 20.01L57.01 20.01L56.32 22ZM58.66 15.28L57.42 18.82L59.90 18.82L58.66 15.28ZM68.97 22L66.51 22L66.51 13.47L69.03 13.47Q70.16 13.47 71.04 13.97Q71.91 14.48 72.39 15.40Q72.88 16.33 72.88 17.52L72.88 17.52L72.88 17.95Q72.88 19.16 72.39 20.08Q71.91 21.00 71.02 21.50Q70.12 22 68.97 22L68.97 22ZM67.99 14.66L67.99 20.82L68.96 20.82Q70.13 20.82 70.75 20.09Q71.38 19.36 71.39 17.99L71.39 17.99L71.39 17.52Q71.39 16.13 70.78 15.40Q70.18 14.66 69.03 14.66L69.03 14.66L67.99 14.66ZM80.45 22L77.34 22L77.34 13.47L80.26 13.47Q81.71 13.47 82.47 14.05Q83.22 14.63 83.22 15.78L83.22 15.78Q83.22 16.36 82.91 16.83Q82.59 17.30 81.98 17.56L81.98 17.56Q82.67 17.75 83.05 18.26Q83.43 18.78 83.43 19.51L83.43 19.51Q83.43 20.71 82.66 21.36Q81.89 22 80.45 22L80.45 22ZM78.82 18.15L78.82 20.82L80.47 20.82Q81.17 20.82 81.56 20.47Q81.95 20.13 81.95 19.51L81.95 19.51Q81.95 18.18 80.59 18.15L80.59 18.15L78.82 18.15ZM78.82 14.66L78.82 17.06L80.28 17.06Q80.97 17.06 81.36 16.75Q81.75 16.43 81.75 15.86L81.75 15.86Q81.75 15.23 81.39 14.95Q81.03 14.66 80.26 14.66L80.26 14.66L78.82 14.66Z" fill="#1E2F5C"/><path class="svg__text" d="" fill="#FFFFFF" x="108.21000000000001"/></svg>