<svg xmlns="http://www.w3.org/2000/svg" width="113.91" height="35" viewBox="0 0 113.91 35"><rect class="svg__rect" x="0" y="0" width="113.91" height="35" fill="#000000"/><rect class="svg__rect" x="113.91" y="0" width="0" height="35" fill="#000000"/><path class="svg__text" d="M15.69 22L14.22 22L14.22 13.47L16.14 13.47L18.60 20.01L21.06 13.47L22.97 13.47L22.97 22L21.49 22L21.49 19.19L21.64 15.43L19.12 22L18.06 22L15.55 15.43L15.69 19.19L15.69 22ZM28.49 22L26.95 22L30.17 13.47L31.50 13.47L34.73 22L33.18 22L32.49 20.01L29.18 20.01L28.49 22ZM30.83 15.28L29.60 18.82L32.07 18.82L30.83 15.28ZM40.17 22L38.69 22L38.69 13.47L41.69 13.47Q43.16 13.47 43.97 14.13Q44.77 14.79 44.77 16.05L44.77 16.05Q44.77 16.90 44.35 17.48Q43.94 18.06 43.20 18.37L43.20 18.37L45.12 21.92L45.12 22L43.53 22L41.82 18.71L40.17 18.71L40.17 22ZM40.17 14.66L40.17 17.52L41.69 17.52Q42.44 17.52 42.86 17.15Q43.29 16.77 43.29 16.11L43.29 16.11Q43.29 15.43 42.90 15.05Q42.51 14.68 41.73 14.66L41.73 14.66L40.17 14.66ZM50.64 22L49.16 22L49.16 13.47L50.64 13.47L50.64 17.47L51.47 16.46L53.96 13.47L55.75 13.47L52.58 17.25L55.94 22L54.18 22L51.61 18.31L50.64 19.34L50.64 22ZM62.17 22L59.72 22L59.72 13.47L62.23 13.47Q63.37 13.47 64.24 13.97Q65.12 14.48 65.60 15.40Q66.08 16.33 66.08 17.52L66.08 17.52L66.08 17.95Q66.08 19.16 65.60 20.08Q65.11 21.00 64.22 21.50Q63.32 22 62.17 22L62.17 22ZM61.20 14.66L61.20 20.82L62.16 20.82Q63.33 20.82 63.95 20.09Q64.58 19.36 64.59 17.99L64.59 17.99L64.59 17.52Q64.59 16.13 63.99 15.40Q63.38 14.66 62.23 14.66L62.23 14.66L61.20 14.66ZM70.27 18.00L70.27 18.00L70.27 17.52Q70.27 16.28 70.72 15.32Q71.16 14.37 71.96 13.86Q72.77 13.35 73.81 13.35Q74.86 13.35 75.66 13.85Q76.47 14.35 76.91 15.29Q77.35 16.23 77.35 17.48L77.35 17.48L77.35 17.96Q77.35 19.21 76.92 20.16Q76.48 21.10 75.68 21.61Q74.87 22.12 73.82 22.12L73.82 22.12Q72.79 22.12 71.98 21.61Q71.16 21.10 70.72 20.17Q70.28 19.23 70.27 18.00ZM71.76 17.46L71.76 17.96Q71.76 19.36 72.30 20.13Q72.85 20.90 73.82 20.90L73.82 20.90Q74.81 20.90 75.34 20.15Q75.87 19.40 75.87 17.96L75.87 17.96L75.87 17.51Q75.87 16.09 75.33 15.34Q74.80 14.58 73.81 14.58L73.81 14.58Q72.85 14.58 72.31 15.33Q71.77 16.09 71.76 17.46L71.76 17.46ZM83.20 22L81.23 13.47L82.70 13.47L84.03 19.88L85.65 13.47L86.90 13.47L88.51 19.89L89.82 13.47L91.29 13.47L89.32 22L87.90 22L86.28 15.77L84.62 22L83.20 22ZM96.85 22L95.36 22L95.36 13.47L96.85 13.47L100.66 19.54L100.66 13.47L102.13 13.47L102.13 22L100.65 22L96.85 15.95L96.85 22Z" fill="#FFFFFF"/><path class="svg__text" d="" fill="#FF0000" x="126.91"/></svg>