<svg xmlns="http://www.w3.org/2000/svg" width="76.65" height="35" viewBox="0 0 76.65 35"><rect class="svg__rect" x="0" y="0" width="76.65" height="35" fill="#005E86"/><rect class="svg__rect" x="76.65" y="0" width="0" height="35" fill="#000000"/><path class="svg__text" d="M15.69 22L14.22 22L14.22 13.47L16.14 13.47L18.60 20.01L21.06 13.47L22.97 13.47L22.97 22L21.49 22L21.49 19.19L21.64 15.43L19.12 22L18.06 22L15.55 15.43L15.69 19.19L15.69 22ZM29.75 18.86L26.89 13.47L28.53 13.47L30.49 17.51L32.46 13.47L34.10 13.47L31.24 18.86L31.24 22L29.75 22L29.75 18.86ZM37.58 19.42L37.58 19.42L39.06 19.42Q39.06 20.15 39.54 20.55Q40.02 20.95 40.92 20.95L40.92 20.95Q41.69 20.95 42.08 20.63Q42.47 20.32 42.47 19.80L42.47 19.80Q42.47 19.24 42.08 18.94Q41.68 18.63 40.65 18.32Q39.62 18.01 39.01 17.63L39.01 17.63Q37.84 16.90 37.84 15.72L37.84 15.72Q37.84 14.69 38.68 14.02Q39.52 13.35 40.87 13.35L40.87 13.35Q41.76 13.35 42.45 13.68Q43.15 14.01 43.55 14.61Q43.95 15.22 43.95 15.96L43.95 15.96L42.47 15.96Q42.47 15.29 42.05 14.91Q41.63 14.54 40.85 14.54L40.85 14.54Q40.13 14.54 39.73 14.85Q39.32 15.16 39.32 15.71L39.32 15.71Q39.32 16.18 39.76 16.50Q40.19 16.81 41.19 17.10Q42.18 17.40 42.79 17.78Q43.39 18.16 43.67 18.65Q43.95 19.13 43.95 19.79L43.95 19.79Q43.95 20.86 43.14 21.49Q42.32 22.12 40.92 22.12L40.92 22.12Q39.99 22.12 39.22 21.77Q38.44 21.43 38.01 20.83Q37.58 20.22 37.58 19.42ZM47.94 18.00L47.94 18.00L47.94 17.52Q47.94 16.28 48.38 15.32Q48.82 14.37 49.63 13.86Q50.43 13.35 51.47 13.35L51.47 13.35Q52.53 13.35 53.33 13.85Q54.14 14.35 54.58 15.29Q55.02 16.23 55.02 17.48L55.02 17.48L55.02 17.96Q55.02 19.17 54.64 20.06Q54.25 20.95 53.56 21.47L53.56 21.47L55.03 22.61L54.07 23.48L52.25 22.04Q51.89 22.12 51.48 22.12L51.48 22.12Q50.45 22.12 49.64 21.61Q48.83 21.10 48.39 20.17Q47.94 19.23 47.94 18.00ZM49.42 17.46L49.42 17.96Q49.42 19.34 49.96 20.12Q50.50 20.90 51.48 20.90L51.48 20.90Q52.47 20.90 53.00 20.15Q53.53 19.40 53.53 17.96L53.53 17.96L53.53 17.51Q53.53 16.07 52.99 15.33Q52.46 14.58 51.47 14.58L51.47 14.58Q50.52 14.58 49.97 15.33Q49.43 16.09 49.42 17.46L49.42 17.46ZM64.87 22L59.52 22L59.52 13.47L61.00 13.47L61.00 20.82L64.87 20.82L64.87 22Z" fill="#DD8900"/><path class="svg__text" d="" fill="#FF0000" x="89.65"/></svg>