<svg xmlns="http://www.w3.org/2000/svg" width="164.05" height="35" viewBox="0 0 164.05 35"><rect class="svg__rect" x="0" y="0" width="56.54" height="35" fill="#FFFFFF"/><rect class="svg__rect" x="54.54" y="0" width="109.51" height="35" fill="#FFFFFF"/><path class="svg__text" d="M15.70 22L14.22 22L14.22 13.47L17.48 13.47Q18.91 13.47 19.75 14.21Q20.59 14.96 20.59 16.18L20.59 16.18Q20.59 17.44 19.77 18.13Q18.95 18.83 17.46 18.83L17.46 18.83L15.70 18.83L15.70 22ZM15.70 14.66L15.70 17.64L17.48 17.64Q18.27 17.64 18.69 17.27Q19.10 16.90 19.10 16.19L19.10 16.19Q19.10 15.50 18.68 15.09Q18.26 14.68 17.52 14.66L17.52 14.66L15.70 14.66ZM26.36 22L24.88 22L24.88 13.47L26.36 13.47L26.36 17.02L30.17 17.02L30.17 13.47L31.65 13.47L31.65 22L30.17 22L30.17 18.21L26.36 18.21L26.36 22ZM37.87 22L36.39 22L36.39 13.47L39.65 13.47Q41.08 13.47 41.92 14.21Q42.76 14.96 42.76 16.18L42.76 16.18Q42.76 17.44 41.94 18.13Q41.12 18.83 39.64 18.83L39.64 18.83L37.87 18.83L37.87 22ZM37.87 14.66L37.87 17.64L39.65 17.64Q40.44 17.64 40.86 17.27Q41.28 16.90 41.28 16.19L41.28 16.19Q41.28 15.50 40.85 15.09Q40.43 14.68 39.69 14.66L39.69 14.66L37.87 14.66Z" fill="#777BB3"/><path class="svg__text" d="M70.93 22L68.73 22L68.73 13.60L70.68 13.60L73.64 18.45L76.52 13.60L78.47 13.60L78.50 22L76.32 22L76.29 17.55L74.13 21.17L73.08 21.17L70.93 17.67L70.93 22ZM85.78 18.95L82.58 13.60L85.09 13.60L87.08 16.94L89.07 13.60L91.37 13.60L88.16 18.99L88.16 22L85.78 22L85.78 18.95ZM96.88 22L94.45 22L98.16 13.60L100.50 13.60L104.22 22L101.75 22L101.09 20.37L97.54 20.37L96.88 22ZM99.31 15.93L98.23 18.61L100.39 18.61L99.31 15.93ZM112.35 22L108.37 22L108.37 13.60L112.35 13.60Q113.73 13.60 114.79 14.12Q115.86 14.63 116.45 15.58Q117.04 16.53 117.04 17.80L117.04 17.80Q117.04 19.07 116.45 20.02Q115.86 20.97 114.79 21.48Q113.73 22 112.35 22L112.35 22ZM110.75 15.50L110.75 20.10L112.25 20.10Q113.33 20.10 113.98 19.49Q114.64 18.88 114.64 17.80L114.64 17.80Q114.64 16.72 113.98 16.11Q113.33 15.50 112.25 15.50L112.25 15.50L110.75 15.50ZM123.96 22L121.77 22L121.77 13.60L123.72 13.60L126.68 18.45L129.56 13.60L131.51 13.60L131.53 22L129.35 22L129.33 17.55L127.17 21.17L126.11 21.17L123.96 17.67L123.96 22ZM139.08 22L136.70 22L136.70 13.60L139.08 13.60L139.08 22ZM146.58 22L144.25 22L144.25 13.60L146.21 13.60L149.92 18.07L149.92 13.60L152.24 13.60L152.24 22L150.29 22L146.58 17.52L146.58 22Z" fill="#F79300" x="67.53999999999999"/></svg>