<svg xmlns="http://www.w3.org/2000/svg" width="99.21" height="35" viewBox="0 0 99.21 35"><rect class="svg__rect" x="0" y="0" width="99.21" height="35" fill="#000000"/><rect class="svg__rect" x="99.21" y="0" width="0" height="35" fill="#000000"/><path class="svg__text" d="M13.78 19.42L13.78 19.42L15.27 19.42Q15.27 20.15 15.75 20.55Q16.23 20.95 17.12 20.95L17.12 20.95Q17.90 20.95 18.29 20.63Q18.68 20.32 18.68 19.80L18.68 19.80Q18.68 19.24 18.28 18.94Q17.89 18.63 16.85 18.32Q15.82 18.01 15.21 17.63L15.21 17.63Q14.05 16.90 14.05 15.72L14.05 15.72Q14.05 14.69 14.89 14.02Q15.73 13.35 17.07 13.35L17.07 13.35Q17.96 13.35 18.66 13.68Q19.36 14.01 19.75 14.61Q20.15 15.22 20.15 15.96L20.15 15.96L18.68 15.96Q18.68 15.29 18.26 14.91Q17.84 14.54 17.06 14.54L17.06 14.54Q16.33 14.54 15.93 14.85Q15.53 15.16 15.53 15.71L15.53 15.71Q15.53 16.18 15.96 16.50Q16.40 16.81 17.39 17.10Q18.39 17.40 18.99 17.78Q19.60 18.16 19.88 18.65Q20.16 19.13 20.16 19.79L20.16 19.79Q20.16 20.86 19.34 21.49Q18.52 22.12 17.12 22.12L17.12 22.12Q16.20 22.12 15.42 21.77Q14.64 21.43 14.21 20.83Q13.78 20.22 13.78 19.42ZM26.49 18.86L23.62 13.47L25.27 13.47L27.23 17.51L29.19 13.47L30.83 13.47L27.98 18.86L27.98 22L26.49 22L26.49 18.86ZM36.23 22L34.75 22L34.75 13.47L36.67 13.47L39.13 20.01L41.59 13.47L43.50 13.47L43.50 22L42.03 22L42.03 19.19L42.17 15.43L39.65 22L38.59 22L36.08 15.43L36.23 19.19L36.23 22ZM49.73 22L48.24 22L48.24 13.47L53.66 13.47L53.66 14.66L49.73 14.66L49.73 17.20L53.16 17.20L53.16 18.38L49.73 18.38L49.73 22ZM57.55 18.00L57.55 18.00L57.55 17.52Q57.55 16.28 58.00 15.32Q58.44 14.37 59.24 13.86Q60.05 13.35 61.09 13.35Q62.14 13.35 62.94 13.85Q63.75 14.35 64.19 15.29Q64.63 16.23 64.63 17.48L64.63 17.48L64.63 17.96Q64.63 19.21 64.20 20.16Q63.76 21.10 62.96 21.61Q62.15 22.12 61.10 22.12L61.10 22.12Q60.07 22.12 59.26 21.61Q58.44 21.10 58.00 20.17Q57.56 19.23 57.55 18.00ZM59.04 17.46L59.04 17.96Q59.04 19.36 59.58 20.13Q60.13 20.90 61.10 20.90L61.10 20.90Q62.09 20.90 62.62 20.15Q63.15 19.40 63.15 17.96L63.15 17.96L63.15 17.51Q63.15 16.09 62.61 15.34Q62.08 14.58 61.09 14.58L61.09 14.58Q60.13 14.58 59.59 15.33Q59.05 16.09 59.04 17.46L59.04 17.46ZM70.58 22L69.10 22L69.10 13.47L70.58 13.47L74.39 19.54L74.39 13.47L75.86 13.47L75.86 22L74.38 22L70.58 15.95L70.58 22ZM82.64 18.86L79.78 13.47L81.42 13.47L83.39 17.51L85.35 13.47L86.99 13.47L84.13 18.86L84.13 22L82.64 22L82.64 18.86Z" fill="#FFFFFF"/><path class="svg__text" d="" fill="#FF0000" x="112.21"/></svg>