<svg xmlns="http://www.w3.org/2000/svg" width="204.48999999999998" height="35" viewBox="0 0 204.48999999999998 35"><rect class="svg__rect" x="0" y="0" width="204.48999999999998" height="35" fill="#3BA4EA"/><rect class="svg__rect" x="204.48999999999998" y="0" width="0" height="35" fill="#000000"/><path class="svg__text" d="M16.51 22L13.46 13.47L15.08 13.47L17.22 20.14L19.39 13.47L21.02 13.47L17.95 22L16.51 22ZM26.53 22L25.06 22L25.06 13.47L26.53 13.47L26.53 22ZM30.91 19.42L30.91 19.42L32.39 19.42Q32.39 20.15 32.87 20.55Q33.35 20.95 34.25 20.95L34.25 20.95Q35.02 20.95 35.41 20.63Q35.80 20.32 35.80 19.80L35.80 19.80Q35.80 19.24 35.41 18.94Q35.01 18.63 33.98 18.32Q32.95 18.01 32.34 17.63L32.34 17.63Q31.17 16.90 31.17 15.72L31.17 15.72Q31.17 14.69 32.02 14.02Q32.86 13.35 34.20 13.35L34.20 13.35Q35.09 13.35 35.79 13.68Q36.48 14.01 36.88 14.61Q37.28 15.22 37.28 15.96L37.28 15.96L35.80 15.96Q35.80 15.29 35.38 14.91Q34.97 14.54 34.19 14.54L34.19 14.54Q33.46 14.54 33.06 14.85Q32.66 15.16 32.66 15.71L32.66 15.71Q32.66 16.18 33.09 16.50Q33.52 16.81 34.52 17.10Q35.52 17.40 36.12 17.78Q36.72 18.16 37.00 18.65Q37.29 19.13 37.29 19.79L37.29 19.79Q37.29 20.86 36.47 21.49Q35.65 22.12 34.25 22.12L34.25 22.12Q33.32 22.12 32.55 21.77Q31.77 21.43 31.34 20.83Q30.91 20.22 30.91 19.42ZM41.44 19.16L41.44 19.16L41.44 13.47L42.92 13.47L42.92 19.18Q42.92 20.03 43.35 20.48Q43.78 20.93 44.63 20.93L44.63 20.93Q46.34 20.93 46.34 19.13L46.34 19.13L46.34 13.47L47.81 13.47L47.81 19.17Q47.81 20.53 46.94 21.32Q46.07 22.12 44.63 22.12L44.63 22.12Q43.16 22.12 42.30 21.33Q41.44 20.55 41.44 19.16ZM54.07 14.66L51.43 14.66L51.43 13.47L58.20 13.47L58.20 14.66L55.54 14.66L55.54 22L54.07 22L54.07 14.66ZM62.73 22L61.19 22L64.41 13.47L65.74 13.47L68.97 22L67.43 22L66.73 20.01L63.42 20.01L62.73 22ZM65.08 15.28L63.84 18.82L66.31 18.82L65.08 15.28ZM78.28 22L72.93 22L72.93 13.47L74.41 13.47L74.41 20.82L78.28 20.82L78.28 22ZM87.95 19.42L87.95 19.42L89.43 19.42Q89.43 20.15 89.91 20.55Q90.39 20.95 91.29 20.95L91.29 20.95Q92.06 20.95 92.45 20.63Q92.84 20.32 92.84 19.80L92.84 19.80Q92.84 19.24 92.45 18.94Q92.05 18.63 91.02 18.32Q89.99 18.01 89.38 17.63L89.38 17.63Q88.22 16.90 88.22 15.72L88.22 15.72Q88.22 14.69 89.06 14.02Q89.90 13.35 91.24 13.35L91.24 13.35Q92.13 13.35 92.83 13.68Q93.52 14.01 93.92 14.61Q94.32 15.22 94.32 15.96L94.32 15.96L92.84 15.96Q92.84 15.29 92.43 14.91Q92.01 14.54 91.23 14.54L91.23 14.54Q90.50 14.54 90.10 14.85Q89.70 15.16 89.70 15.71L89.70 15.71Q89.70 16.18 90.13 16.50Q90.56 16.81 91.56 17.10Q92.56 17.40 93.16 17.78Q93.76 18.16 94.05 18.65Q94.33 19.13 94.33 19.79L94.33 19.79Q94.33 20.86 93.51 21.49Q92.69 22.12 91.29 22.12L91.29 22.12Q90.37 22.12 89.59 21.77Q88.81 21.43 88.38 20.83Q87.95 20.22 87.95 19.42ZM100.30 14.66L97.66 14.66L97.66 13.47L104.43 13.47L104.43 14.66L101.77 14.66L101.77 22L100.30 22L100.30 14.66ZM108.05 19.16L108.05 19.16L108.05 13.47L109.53 13.47L109.53 19.18Q109.53 20.03 109.96 20.48Q110.39 20.93 111.24 20.93L111.24 20.93Q112.95 20.93 112.95 19.13L112.95 19.13L112.95 13.47L114.42 13.47L114.42 19.17Q114.42 20.53 113.55 21.32Q112.68 22.12 111.24 22.12L111.24 22.12Q109.77 22.12 108.91 21.33Q108.05 20.55 108.05 19.16ZM121.45 22L118.99 22L118.99 13.47L121.51 13.47Q122.64 13.47 123.52 13.97Q124.40 14.48 124.88 15.40Q125.36 16.33 125.36 17.52L125.36 17.52L125.36 17.95Q125.36 19.16 124.87 20.08Q124.39 21.00 123.50 21.50Q122.60 22 121.45 22L121.45 22ZM120.48 14.66L120.48 20.82L121.44 20.82Q122.61 20.82 123.23 20.09Q123.86 19.36 123.87 17.99L123.87 17.99L123.87 17.52Q123.87 16.13 123.27 15.40Q122.66 14.66 121.51 14.66L121.51 14.66L120.48 14.66ZM131.39 22L129.91 22L129.91 13.47L131.39 13.47L131.39 22ZM135.93 18.00L135.93 18.00L135.93 17.52Q135.93 16.28 136.37 15.32Q136.81 14.37 137.62 13.86Q138.42 13.35 139.47 13.35Q140.51 13.35 141.32 13.85Q142.12 14.35 142.56 15.29Q143.00 16.23 143.01 17.48L143.01 17.48L143.01 17.96Q143.01 19.21 142.57 20.16Q142.14 21.10 141.33 21.61Q140.53 22.12 139.48 22.12L139.48 22.12Q138.44 22.12 137.63 21.61Q136.82 21.10 136.38 20.17Q135.93 19.23 135.93 18.00ZM137.41 17.46L137.41 17.96Q137.41 19.36 137.96 20.13Q138.51 20.90 139.48 20.90L139.48 20.90Q140.46 20.90 140.99 20.15Q141.52 19.40 141.52 17.96L141.52 17.96L141.52 17.51Q141.52 16.09 140.99 15.34Q140.45 14.58 139.47 14.58L139.47 14.58Q138.51 14.58 137.96 15.33Q137.42 16.09 137.41 17.46L137.41 17.46ZM153.18 18.19L153.18 18.19L153.18 17.39Q153.18 16.19 153.61 15.27Q154.03 14.35 154.83 13.85Q155.63 13.35 156.68 13.35L156.68 13.35Q158.09 13.35 158.96 14.12Q159.82 14.89 159.96 16.29L159.96 16.29L158.48 16.29Q158.38 15.37 157.94 14.96Q157.51 14.55 156.68 14.55L156.68 14.55Q155.72 14.55 155.20 15.26Q154.68 15.96 154.67 17.33L154.67 17.33L154.67 18.09Q154.67 19.47 155.16 20.20Q155.66 20.92 156.61 20.92L156.61 20.92Q157.48 20.92 157.92 20.53Q158.36 20.14 158.48 19.22L158.48 19.22L159.96 19.22Q159.83 20.59 158.95 21.35Q158.07 22.12 156.61 22.12L156.61 22.12Q155.59 22.12 154.82 21.63Q154.04 21.15 153.62 20.26Q153.20 19.37 153.18 18.19ZM164.00 18.00L164.00 18.00L164.00 17.52Q164.00 16.28 164.44 15.32Q164.89 14.37 165.69 13.86Q166.50 13.35 167.54 13.35Q168.58 13.35 169.39 13.85Q170.19 14.35 170.63 15.29Q171.07 16.23 171.08 17.48L171.08 17.48L171.08 17.96Q171.08 19.21 170.64 20.16Q170.21 21.10 169.41 21.61Q168.60 22.12 167.55 22.12L167.55 22.12Q166.51 22.12 165.70 21.61Q164.89 21.10 164.45 20.17Q164.01 19.23 164.00 18.00ZM165.48 17.46L165.48 17.96Q165.48 19.36 166.03 20.13Q166.58 20.90 167.55 20.90L167.55 20.90Q168.54 20.90 169.07 20.15Q169.60 19.40 169.60 17.96L169.60 17.96L169.60 17.51Q169.60 16.09 169.06 15.34Q168.52 14.58 167.54 14.58L167.54 14.58Q166.58 14.58 166.04 15.33Q165.49 16.09 165.48 17.46L165.48 17.46ZM178.00 22L175.54 22L175.54 13.47L178.06 13.47Q179.19 13.47 180.07 13.97Q180.95 14.48 181.43 15.40Q181.91 16.33 181.91 17.52L181.91 17.52L181.91 17.95Q181.91 19.16 181.42 20.08Q180.94 21.00 180.05 21.50Q179.15 22 178.00 22L178.00 22ZM177.03 14.66L177.03 20.82L177.99 20.82Q179.16 20.82 179.78 20.09Q180.41 19.36 180.42 17.99L180.42 17.99L180.42 17.52Q180.42 16.13 179.81 15.40Q179.21 14.66 178.06 14.66L178.06 14.66L177.03 14.66ZM191.95 22L186.37 22L186.37 13.47L191.91 13.47L191.91 14.66L187.85 14.66L187.85 17.02L191.36 17.02L191.36 18.19L187.85 18.19L187.85 20.82L191.95 20.82L191.95 22Z" fill="#FFFFFF"/><path class="svg__text" d="" fill="#FF0000" x="217.48999999999998"/></svg>